<?xml version="1.0" encoding="utf-8"?>
<!-- Generator: Adobe Illustrator 21.0.0, SVG Export Plug-In . SVG Version: 6.00 Build 0)  -->
<svg version="1.1" id="Capa_1" xmlns="http://www.w3.org/2000/svg" xmlns:xlink="http://www.w3.org/1999/xlink" x="0px" y="0px"
	 width="64px" height="64px" viewBox="0 0 64 64" style="enable-background:new 0 0 64 64;" xml:space="preserve">
<style type="text/css">
	.st0{fill:url(#SVGID_1_);}
	.st1{fill:url(#SVGID_2_);}
	.st2{fill:url(#SVGID_3_);}
	.st3{fill:#FFFFFF;}
	.st4{fill:url(#SVGID_4_);}
	.st5{fill:url(#SVGID_5_);}
	.st6{fill:url(#SVGID_6_);}
</style>
<g>
	<g>
		
			<linearGradient id="SVGID_1_" gradientUnits="userSpaceOnUse" x1="39.1548" y1="27.6826" x2="54.3309" y2="18.9207" gradientTransform="matrix(1 0 0 -1 0 64)">
			<stop  offset="0" style="stop-color:#389BCA"/>
			<stop  offset="0.1837" style="stop-color:#3297C6"/>
			<stop  offset="0.3742" style="stop-color:#1F8CBA"/>
			<stop  offset="0.5677" style="stop-color:#007AA8"/>
			<stop  offset="0.7633" style="stop-color:#00628E"/>
			<stop  offset="0.9588" style="stop-color:#004770"/>
			<stop  offset="1" style="stop-color:#004169"/>
		</linearGradient>
		<polygon class="st0" points="54.3,20 54.3,45.1 32.6,57.6 32.6,47.6 45.7,40.1 45.7,25 		"/>
		
			<linearGradient id="SVGID_2_" gradientUnits="userSpaceOnUse" x1="24.8452" y1="27.6826" x2="9.6691" y2="18.9207" gradientTransform="matrix(1 0 0 -1 0 64)">
			<stop  offset="0" style="stop-color:#389BCA"/>
			<stop  offset="0.1837" style="stop-color:#3297C6"/>
			<stop  offset="0.3742" style="stop-color:#1F8CBA"/>
			<stop  offset="0.5677" style="stop-color:#007AA8"/>
			<stop  offset="0.7633" style="stop-color:#00628E"/>
			<stop  offset="0.9588" style="stop-color:#004770"/>
			<stop  offset="1" style="stop-color:#004169"/>
		</linearGradient>
		<polygon class="st1" points="18.3,40.1 31.4,47.6 31.4,57.6 9.7,45.1 9.7,20 18.3,25 		"/>
		
			<linearGradient id="SVGID_3_" gradientUnits="userSpaceOnUse" x1="32" y1="40.0768" x2="32" y2="57.6" gradientTransform="matrix(1 0 0 -1 0 64)">
			<stop  offset="0" style="stop-color:#389BCA"/>
			<stop  offset="0.1837" style="stop-color:#3198C6"/>
			<stop  offset="0.3742" style="stop-color:#198EBC"/>
			<stop  offset="0.5677" style="stop-color:#007EAB"/>
			<stop  offset="0.7633" style="stop-color:#006A94"/>
			<stop  offset="0.9588" style="stop-color:#005177"/>
			<stop  offset="1" style="stop-color:#004B70"/>
		</linearGradient>
		<polygon class="st2" points="53.7,18.9 45,23.9 32,16.4 19,23.9 10.3,18.9 32,6.4 		"/>
	</g>
	<polygon class="st3" points="20.9,25.8 32,19.4 43.1,25.8 43.1,38.6 32,45 20.9,38.6 	"/>
	<g>
		
			<linearGradient id="SVGID_4_" gradientUnits="userSpaceOnUse" x1="32" y1="31.8143" x2="43.0848" y2="25.4145" gradientTransform="matrix(1 0 0 -1 0 64)">
			<stop  offset="0" style="stop-color:#F0E400"/>
			<stop  offset="1" style="stop-color:#65A428"/>
		</linearGradient>
		<polygon class="st4" points="43.1,25.8 43.1,38.6 32.6,44.6 32,45 32,32.2 40.5,27.3 		"/>
		
			<linearGradient id="SVGID_5_" gradientUnits="userSpaceOnUse" x1="32" y1="31.8143" x2="20.9152" y2="25.4145" gradientTransform="matrix(1 0 0 -1 0 64)">
			<stop  offset="0" style="stop-color:#F0E400"/>
			<stop  offset="1" style="stop-color:#65A428"/>
		</linearGradient>
		<polygon class="st5" points="32,32.2 32,45 31.4,44.6 20.9,38.6 20.9,25.8 20.9,25.8 23.5,27.3 		"/>
		
			<linearGradient id="SVGID_6_" gradientUnits="userSpaceOnUse" x1="32" y1="31.8144" x2="32" y2="44.6144" gradientTransform="matrix(1 0 0 -1 0 64)">
			<stop  offset="0" style="stop-color:#F0E400"/>
			<stop  offset="1" style="stop-color:#65A428"/>
		</linearGradient>
		<polygon class="st6" points="43.1,25.8 40.5,27.3 32,32.2 23.5,27.3 20.9,25.8 21.6,25.4 32,19.4 42.4,25.4 		"/>
	</g>
</g>
</svg>
