<?xml version="1.0" encoding="utf-8"?>
<!-- Generator: Adobe Illustrator 21.0.0, SVG Export Plug-In . SVG Version: 6.00 Build 0)  -->
<svg version="1.1" id="Capa_1" xmlns="http://www.w3.org/2000/svg" xmlns:xlink="http://www.w3.org/1999/xlink" x="0px" y="0px"
	 width="1000px" height="1000px" viewBox="0 0 1000 1000" style="enable-background:new 0 0 1000 1000;" xml:space="preserve">
<style type="text/css">
	.st0{fill:#282727;}
</style>
<g>
	<g>
		<path class="st0" d="M778.7,295.9v300.6L518.3,746.9V640.6l163.3-94.3l5-2.9v-5.8V349.1L778.7,295.9 M788.7,278.6l-112,64.7v194.4
			l-168.3,97.2v129.3l280.3-161.9V278.6L788.7,278.6z"/>
		<path class="st0" d="M221.3,295.9l92,53.1v188.6v5.8l5,2.9l163.3,94.3v106.2L221.3,596.5V295.9 M211.3,278.6v323.7l280.3,161.9
			V634.8l-168.3-97.2V343.3L211.3,278.6L211.3,278.6z"/>
		<path class="st0" d="M500,113.9l260.3,150.3l-92,53.1L505,223l-5-2.9l-5,2.9l-163.3,94.3l-92-53.1L500,113.9 M500,102.3
			L219.7,264.2l112,64.7L500,231.6l168.3,97.2l112-64.7L500,102.3L500,102.3z"/>
	</g>
	<g>
		<path class="st0" d="M133.8,897.7v-13.8h13.3l-13.3-34.4L115,897.7H99.3l27.5-68.8h13.8l27.5,68.8H133.8z"/>
		<path class="st0" d="M204,828.8h68.8v13.8h-55.1v41.3h55.1v13.8H204V828.8z"/>
		<path class="st0" d="M308.6,828.8h68.8v13.8h-27.5v55.1h-13.8v-55.1h-27.5V828.8z"/>
		<path class="st0" d="M454.6,828.8v68.8h-13.8v-68.8H454.6z"/>
		<path class="st0" d="M517.9,897.7v-68.8h13.8l41.3,48.8v-48.8h13.8v68.8H573l-41.3-47.3v47.3H517.9z"/>
		<path class="st0" d="M663.8,828.8v68.8h-13.8v-68.8H663.8z"/>
		<path class="st0" d="M741,828.8v55.1h41.3v-55.1H796v68.8h-68.8v-68.8H741z"/>
		<path class="st0" d="M831.8,897.7v-68.8h68.8v68.8h-13.8v-55.1h-13.8v55.1h-13.8v-55.1h-13.8v55.1H831.8z"/>
	</g>
	<g>
		<polygon class="st0" points="356.7,352.9 356.7,352.9 356.7,352.9 356.7,352.9 356.7,352.9 		"/>
		<polygon class="st0" points="643.3,352.9 643.3,352.9 643.3,352.9 643.3,352.9 643.3,352.9 		"/>
		<rect x="643.3" y="352.9" class="st0" width="0" height="0"/>
		<polygon class="st0" points="643.3,358.7 643.3,518.4 643.3,358.7 		"/>
		<polygon class="st0" points="356.7,358.7 356.7,518.4 356.7,358.7 		"/>
		<rect x="356.7" y="352.9" class="st0" width="0" height="0"/>
		<polygon class="st0" points="643.3,352.9 643.3,352.9 643.3,352.9 		"/>
		<polygon class="st0" points="361.7,350 500,270.1 361.7,350 		"/>
		<polygon class="st0" points="356.7,352.9 356.7,352.9 356.7,352.9 		"/>
		<polygon class="st0" points="638.3,350 500,270.1 638.3,350 		"/>
		<polygon class="st0" points="500,601.1 500,601.1 500,601.1 		"/>
		<polygon class="st0" points="356.7,352.9 356.7,352.9 356.7,352.9 		"/>
		<polygon class="st0" points="643.3,352.9 643.3,352.9 643.3,352.9 		"/>
		<path class="st0" d="M658.3,352.9v-8.7l-7.5-4.3l-143.3-82.8l-7.5-4.3l-7.5,4.3l-143.3,82.8l-7.5,4.3v8.7l0,165.5v8.7l7.5,4.3
			l143.3,82.8l7.5,4.3l7.5-4.3l143.3-82.8l7.5-4.3v-8.7L658.3,352.9z M495,598.3l-138.3-79.9l0-159.7L495,438.5V598.3z M361.7,350
			L500,270.1L638.3,350L500,429.9L361.7,350z M505,598.3V438.5l138.3-79.8l0,159.7L505,598.3z"/>
	</g>
</g>
</svg>
