<?xml version="1.0" encoding="utf-8"?>
<!-- Generator: Adobe Illustrator 21.0.0, SVG Export Plug-In . SVG Version: 6.00 Build 0)  -->
<svg version="1.1" id="Capa_1" xmlns="http://www.w3.org/2000/svg" xmlns:xlink="http://www.w3.org/1999/xlink" x="0px" y="0px"
	 width="2357.5px" height="822.7px" viewBox="0 0 2357.5 822.7" style="enable-background:new 0 0 2357.5 822.7;"
	 xml:space="preserve">
<style type="text/css">
	.st0{clip-path:url(#SVGID_2_);}
	.st1{fill:url(#SVGID_3_);}
	.st2{fill:url(#SVGID_4_);}
	.st3{fill:url(#SVGID_5_);}
	.st4{fill:url(#SVGID_6_);}
	.st5{fill:url(#SVGID_7_);}
	.st6{fill:url(#SVGID_8_);}
	.st7{fill:#004169;}
</style>
<g>
	<defs>
		<polygon id="SVGID_1_" points="64.9,238.1 64.9,584.5 364.9,757.8 664.9,584.5 664.9,238.1 364.9,64.9 		"/>
	</defs>
	<clipPath id="SVGID_2_">
		<use xlink:href="#SVGID_1_"  style="overflow:visible;"/>
	</clipPath>
	<g class="st0">
		<g>
			<linearGradient id="SVGID_3_" gradientUnits="userSpaceOnUse" x1="461.0638" y1="466.869" x2="664.9302" y2="584.5714">
				<stop  offset="0" style="stop-color:#389BCA"/>
				<stop  offset="0.1726" style="stop-color:#3393C1"/>
				<stop  offset="0.454" style="stop-color:#257CA8"/>
				<stop  offset="0.8072" style="stop-color:#0E5881"/>
				<stop  offset="1" style="stop-color:#004169"/>
			</linearGradient>
			<polygon class="st1" points="664.9,248.2 664.9,584.6 373.6,752.8 373.6,618.4 548.5,517.4 548.5,315.4 			"/>
			<linearGradient id="SVGID_4_" gradientUnits="userSpaceOnUse" x1="268.8043" y1="466.869" x2="64.9379" y2="584.5714">
				<stop  offset="0" style="stop-color:#389BCA"/>
				<stop  offset="0.1726" style="stop-color:#3393C1"/>
				<stop  offset="0.454" style="stop-color:#257CA8"/>
				<stop  offset="0.8072" style="stop-color:#0E5881"/>
				<stop  offset="1" style="stop-color:#004169"/>
			</linearGradient>
			<polygon class="st2" points="181.3,517.4 356.3,618.4 356.3,752.8 64.9,584.6 64.9,248.2 181.3,315.4 			"/>
			<linearGradient id="SVGID_5_" gradientUnits="userSpaceOnUse" x1="364.9341" y1="300.3612" x2="364.9341" y2="64.934">
				<stop  offset="0" style="stop-color:#389BCA"/>
				<stop  offset="0.1726" style="stop-color:#3393C1"/>
				<stop  offset="0.454" style="stop-color:#257CA8"/>
				<stop  offset="0.8072" style="stop-color:#0E5881"/>
				<stop  offset="1" style="stop-color:#004169"/>
			</linearGradient>
			<polygon class="st3" points="656.3,233.2 539.9,300.4 364.9,199.3 190,300.4 73.6,233.2 364.9,64.9 			"/>
		</g>
		<g>
			<linearGradient id="SVGID_6_" gradientUnits="userSpaceOnUse" x1="364.9311" y1="411.3595" x2="513.8828" y2="497.3568">
				<stop  offset="0" style="stop-color:#F0E400"/>
				<stop  offset="1" style="stop-color:#65A428"/>
			</linearGradient>
			<polygon class="st4" points="513.9,325.4 513.9,325.4 513.9,497.3 364.9,583.4 364.9,411.4 			"/>
			<linearGradient id="SVGID_7_" gradientUnits="userSpaceOnUse" x1="364.937" y1="411.3595" x2="215.9853" y2="497.3568">
				<stop  offset="0" style="stop-color:#F0E400"/>
				<stop  offset="1" style="stop-color:#65A428"/>
			</linearGradient>
			<polygon class="st5" points="364.9,411.4 364.9,583.4 356.3,578.4 216,497.3 216,325.4 216,325.4 			"/>
			<linearGradient id="SVGID_8_" gradientUnits="userSpaceOnUse" x1="364.9341" y1="411.3544" x2="364.9341" y2="239.3566">
				<stop  offset="0" style="stop-color:#F0E400"/>
				<stop  offset="1" style="stop-color:#65A428"/>
			</linearGradient>
			<polygon class="st6" points="364.9,411.4 216,325.4 364.9,239.4 513.9,325.4 			"/>
		</g>
	</g>
</g>
<g>
	<polygon class="st7" points="799.1,324.7 729.9,497.9 769.4,497.9 816.4,376.7 849.9,463.3 816.4,463.3 816.4,497.9 902.9,497.9 
		833.7,324.7 	"/>
	<polygon class="st7" points="967.9,497.9 1141.1,497.9 1141.1,463.3 1002.5,463.3 1002.5,359.4 1141.1,359.4 1141.1,324.7 
		967.9,324.7 	"/>
	<polygon class="st7" points="1206,359.4 1275.2,359.4 1275.2,497.9 1309.9,497.9 1309.9,359.4 1379.2,359.4 1379.2,324.7 
		1206,324.7 	"/>
	<rect x="1444.1" y="324.7" class="st7" width="34.7" height="173.2"/>
	<polygon class="st7" points="1682.1,447.6 1578.3,324.7 1543.6,324.7 1543.6,497.9 1578.3,497.9 1578.3,378.9 1682.1,497.9 
		1716.8,497.9 1716.8,324.7 1682.1,324.7 	"/>
	<rect x="1781.7" y="324.7" class="st7" width="34.7" height="173.2"/>
	<polygon class="st7" points="2019.7,463.3 1915.9,463.3 1915.9,324.7 1881.3,324.7 1881.3,497.9 2054.4,497.9 2054.4,324.7 
		2019.7,324.7 	"/>
	<polygon class="st7" points="2119.3,324.7 2119.3,497.9 2154,497.9 2154,359.4 2188.7,359.4 2188.7,497.9 2223.2,497.9 
		2223.2,359.4 2257.9,359.4 2257.9,497.9 2292.5,497.9 2292.5,324.7 	"/>
</g>
</svg>
