<?xml version="1.0" encoding="utf-8"?>
<!-- Generator: Adobe Illustrator 21.0.0, SVG Export Plug-In . SVG Version: 6.00 Build 0)  -->
<svg version="1.1" id="Capa_1" xmlns="http://www.w3.org/2000/svg" xmlns:xlink="http://www.w3.org/1999/xlink" x="0px" y="0px"
	 width="1000px" height="1000px" viewBox="0 0 1000 1000" style="enable-background:new 0 0 1000 1000;" xml:space="preserve">
<style type="text/css">
	.st0{fill:#282727;}
</style>
<g>
	<g>
		<path class="st0" d="M836.8,334v363.3L522.2,879.1V750.7l197.4-114l6-3.5v-7v-228L836.8,334 M848.9,313.1l-135.4,78.2v234.9
			L510.1,743.7V900l338.8-195.6V313.1L848.9,313.1z"/>
		<path class="st0" d="M163.2,334l111.2,64.2v228v7l6,3.5l197.4,114v128.4L163.2,697.4V334 M151.1,313.1v391.3L489.9,900V743.7
			L286.5,626.2V391.3L151.1,313.1L151.1,313.1z"/>
		<path class="st0" d="M500,114l314.7,181.7l-111.2,64.2L506,245.9l-6-3.5l-6,3.5l-197.4,114l-111.2-64.2L500,114 M500,100
			L161.2,295.6l135.4,78.2L500,256.3l203.5,117.5l135.4-78.2L500,100L500,100z"/>
	</g>
	<g>
		<polygon class="st0" points="326.8,402.9 326.8,402.9 326.8,402.9 326.8,402.9 326.8,402.9 		"/>
		<polygon class="st0" points="673.2,402.9 673.2,402.9 673.2,402.9 673.2,402.9 673.2,402.9 		"/>
		<rect x="673.2" y="402.9" class="st0" width="0" height="0"/>
		<polygon class="st0" points="673.2,409.9 673.2,602.9 673.2,409.9 		"/>
		<polygon class="st0" points="326.8,409.9 326.8,602.9 326.8,409.9 		"/>
		<rect x="326.8" y="402.9" class="st0" width="0" height="0"/>
		<polygon class="st0" points="673.2,402.9 673.2,402.9 673.2,402.9 		"/>
		<polygon class="st0" points="332.8,399.4 500,302.9 332.8,399.4 		"/>
		<polygon class="st0" points="326.8,402.9 326.8,402.9 326.8,402.9 		"/>
		<polygon class="st0" points="667.2,399.4 500,302.9 667.2,399.4 		"/>
		<polygon class="st0" points="500,702.9 500,702.9 500,702.9 		"/>
		<polygon class="st0" points="326.8,402.9 326.8,402.9 326.8,402.9 		"/>
		<polygon class="st0" points="673.2,402.9 673.2,402.9 673.2,402.9 		"/>
		<path class="st0" d="M691.3,402.9v-10.5l-9.1-5.2l-173.2-100l-9.1-5.2l-9.1,5.2l-173.2,100l-9.1,5.2v10.5l0,200v10.5l9.1,5.2
			l173.2,100l9.1,5.2l9.1-5.2l173.2-100l9.1-5.2v-10.5L691.3,402.9z M494,699.5l-167.2-96.6l0-193L494,506.4V699.5z M332.8,399.4
			L500,302.9l167.2,96.6L500,495.9L332.8,399.4z M506,699.5V506.4l167.2-96.5l0,193L506,699.5z"/>
	</g>
</g>
</svg>
