<?xml version="1.0" encoding="utf-8"?>
<!-- Generator: Adobe Illustrator 21.0.0, SVG Export Plug-In . SVG Version: 6.00 Build 0)  -->
<svg version="1.1" id="Capa_1" xmlns="http://www.w3.org/2000/svg" xmlns:xlink="http://www.w3.org/1999/xlink" x="0px" y="0px"
	 width="1000px" height="1000px" viewBox="0 0 1000 1000" style="enable-background:new 0 0 1000 1000;" xml:space="preserve">
<style type="text/css">
	.st0{fill:url(#SVGID_1_);}
	.st1{fill:url(#SVGID_2_);}
	.st2{fill:url(#SVGID_3_);}
	.st3{fill:#3F3F3E;}
	.st4{fill:url(#SVGID_4_);}
	.st5{fill:url(#SVGID_5_);}
	.st6{fill:url(#SVGID_6_);}
	.st7{fill:#282727;}
</style>
<g>
	<g>
		<linearGradient id="SVGID_1_" gradientUnits="userSpaceOnUse" x1="592.4982" y1="489.0624" x2="788.6628" y2="602.3182">
			<stop  offset="0" style="stop-color:#5C5C5B"/>
			<stop  offset="0.3749" style="stop-color:#585857"/>
			<stop  offset="0.7627" style="stop-color:#4C4B4A"/>
			<stop  offset="1" style="stop-color:#3F3F3E"/>
		</linearGradient>
		<polygon class="st0" points="788.7,278.6 788.7,602.3 508.3,764.2 508.3,634.8 676.7,537.6 676.7,343.3 		"/>
		<linearGradient id="SVGID_2_" gradientUnits="userSpaceOnUse" x1="407.5018" y1="489.0624" x2="211.3371" y2="602.3182">
			<stop  offset="0" style="stop-color:#686867"/>
			<stop  offset="0.3092" style="stop-color:#646464"/>
			<stop  offset="0.6295" style="stop-color:#595858"/>
			<stop  offset="0.9539" style="stop-color:#434342"/>
			<stop  offset="1" style="stop-color:#3F3F3E"/>
		</linearGradient>
		<polygon class="st1" points="323.3,537.6 491.7,634.8 491.7,764.2 211.3,602.3 211.3,278.6 323.3,343.3 		"/>
		<linearGradient id="SVGID_3_" gradientUnits="userSpaceOnUse" x1="500" y1="328.8449" x2="500" y2="102.3117">
			<stop  offset="0" style="stop-color:#5C5C5B"/>
			<stop  offset="0.3749" style="stop-color:#585857"/>
			<stop  offset="0.7627" style="stop-color:#4C4B4A"/>
			<stop  offset="1" style="stop-color:#3F3F3E"/>
		</linearGradient>
		<polygon class="st2" points="780.3,264.2 668.3,328.8 500,231.6 331.7,328.8 219.7,264.2 500,102.3 		"/>
	</g>
	<polygon class="st3" points="356.7,352.9 500,270.1 643.3,352.9 643.3,518.4 500,601.1 356.7,518.4 	"/>
	<g>
		<linearGradient id="SVGID_4_" gradientUnits="userSpaceOnUse" x1="499.9972" y1="435.6499" x2="643.3218" y2="518.3984">
			<stop  offset="0" style="stop-color:#525251"/>
			<stop  offset="1" style="stop-color:#282727"/>
		</linearGradient>
		<polygon class="st4" points="643.3,352.9 643.3,518.4 508.3,596.3 500,601.1 500,435.6 610,372.1 643.3,352.9 		"/>
		<linearGradient id="SVGID_5_" gradientUnits="userSpaceOnUse" x1="500.0028" y1="435.6499" x2="356.6782" y2="518.3984">
			<stop  offset="0" style="stop-color:#525251"/>
			<stop  offset="1" style="stop-color:#282727"/>
		</linearGradient>
		<polygon class="st5" points="500,435.6 500,601.1 491.7,596.3 356.7,518.4 356.7,352.9 356.7,352.9 390,372.1 		"/>
		<linearGradient id="SVGID_6_" gradientUnits="userSpaceOnUse" x1="500" y1="435.6451" x2="500" y2="270.145">
			<stop  offset="0" style="stop-color:#525251"/>
			<stop  offset="1" style="stop-color:#282727"/>
		</linearGradient>
		<polygon class="st6" points="643.3,352.9 610,372.1 500,435.6 390,372.1 356.7,352.9 365,348.1 500,270.1 635,348.1 		"/>
	</g>
	<g>
		<path class="st7" d="M133.8,897.7v-13.8h13.3l-13.3-34.4L115,897.7H99.3l27.5-68.8h13.8l27.5,68.8H133.8z"/>
		<path class="st7" d="M204,828.8h68.8v13.8h-55.1v41.3h55.1v13.8H204V828.8z"/>
		<path class="st7" d="M308.6,828.8h68.8v13.8h-27.5v55.1h-13.8v-55.1h-27.5V828.8z"/>
		<path class="st7" d="M454.6,828.8v68.8h-13.8v-68.8H454.6z"/>
		<path class="st7" d="M517.9,897.7v-68.8h13.8l41.3,48.8v-48.8h13.8v68.8H573l-41.3-47.3v47.3H517.9z"/>
		<path class="st7" d="M663.8,828.8v68.8h-13.8v-68.8H663.8z"/>
		<path class="st7" d="M741,828.8v55.1h41.3v-55.1H796v68.8h-68.8v-68.8H741z"/>
		<path class="st7" d="M831.8,897.7v-68.8h68.8v68.8h-13.8v-55.1h-13.8v55.1h-13.8v-55.1h-13.8v55.1H831.8z"/>
	</g>
</g>
</svg>
